# xmcd
#
# Track frame offsets: 
#        150
#        26512
#        53819
#        72459
#        95377
#        109552
#        130437
#        154232
#        173654
#        193279
#        209201
#        226561
#
# Disc length: 3356 seconds
#
# Revision: 4
# Processed by: cddbd v1.5.2PL0 Copyright (c) Steve Scherf et al.
# Submitted via: ExactAudioCopy v0.99pb3
#
DISCID=a70d1a0c
DTITLE=Freakwater - End Time
DYEAR=1999
DGENRE=Country
TTITLE0=Good for Nothing
TTITLE1=Cloak of Frogs
TTITLE2=Sick, Sick, Sick
TTITLE3=Just Like You
TTITLE4=Cheap Watch
TTITLE5=My History
TTITLE6=When the Leaves Begin to Fall
TTITLE7=Written in Gold
TTITLE8=Dog Gone Wrong
TTITLE9=Queen Bee
TTITLE10=Raised Skin
TTITLE11=All Life Long
EXTD=YEAR: 1999
EXTT0=
EXTT1=
EXTT2=
EXTT3=
EXTT4=
EXTT5=
EXTT6=
EXTT7=
EXTT8=
EXTT9=
EXTT10=
EXTT11=
PLAYORDER=
